<svg xmlns="http://www.w3.org/2000/svg" viewBox="0 0 1600 900">
  <rect width="1600" height="900" fill="#dff1ff"/>
  <circle cx="1240" cy="190" r="92" fill="#fbbf24" opacity="0.95"/>
  <circle cx="1240" cy="190" r="140" fill="#fbbf24" opacity="0.18"/>
  <circle cx="1240" cy="190" r="200" fill="#fbbf24" opacity="0.10"/>
  <g opacity="0.18" fill="#ffffff">
    <path d="M278 256c40-46 116-49 162-7 33-20 76-17 104 8 35-24 84-20 115 10 52-15 113 11 132 61 38 6 66 39 66 79 0 44-34 80-77 80H278c-61 0-111-50-111-112 0-59 45-107 102-112 2-3 5-6 9-7z"/>
  </g>
  <g opacity="0.12" fill="#0ea5e9">
    <circle cx="260" cy="720" r="220"/>
    <circle cx="520" cy="780" r="170"/>
  </g>
</svg>
