<svg xmlns="http://www.w3.org/2000/svg" viewBox="0 0 1600 900">
  <rect width="1600" height="900" fill="#e9eef6"/>
  <g fill="#ffffff" opacity="0.85">
    <path d="M280 310c48-54 136-57 190-9 39-24 90-20 123 10 41-29 99-25 136 12 62-18 134 14 157 73 45 7 79 46 79 94 0 52-41 94-92 94H280c-72 0-131-59-131-132 0-69 52-125 120-131 3-4 7-8 11-11z"/>
    <path d="M812 206c34-38 97-40 135-7 27-16 63-14 86 7 28-20 68-17 93 8 43-12 94 9 110 51 31 5 55 33 55 67 0 37-29 67-67 67H812c-51 0-92-41-92-92 0-48 36-88 82-92 2-3 5-6 8-9z" opacity="0.75"/>
  </g>
  <g fill="#94a3b8" opacity="0.10">
    <circle cx="240" cy="760" r="240"/>
    <circle cx="520" cy="820" r="200"/>
    <circle cx="980" cy="780" r="260"/>
  </g>
</svg>
