<svg xmlns="http://www.w3.org/2000/svg" viewBox="0 0 1600 900">
  <rect width="1600" height="900" fill="#061126"/>
  <g fill="#e2e8f0" opacity="0.14">
    <path d="M300 250c55-62 157-65 220-10 45-27 104-23 142 12 47-33 115-29 158 14 73-21 157 16 184 86 53 8 93 54 93 111 0 62-49 112-110 112H300c-83 0-151-68-151-153 0-80 61-145 140-152 4-5 8-10 14-20z"/>
  </g>
  <g stroke="#38bdf8" stroke-width="6" stroke-linecap="round" opacity="0.22">
    <path d="M430 520l-38 110"/>
    <path d="M520 535l-38 110"/>
    <path d="M610 520l-38 110"/>
    <path d="M700 545l-38 110"/>
    <path d="M790 520l-38 110"/>
    <path d="M880 545l-38 110"/>
    <path d="M970 520l-38 110"/>
    <path d="M1060 540l-38 110"/>
    <path d="M1150 520l-38 110"/>
  </g>
  <g fill="#2563eb" opacity="0.06">
    <circle cx="250" cy="780" r="240"/>
    <circle cx="560" cy="820" r="180"/>
    <circle cx="1060" cy="800" r="260"/>
  </g>
</svg>
