<svg xmlns="http://www.w3.org/2000/svg" viewBox="0 0 1600 900">
  <rect width="1600" height="900" fill="#061022"/>
  <g fill="#e2e8f0" opacity="0.10">
    <path d="M320 260c48-54 138-58 192-9 40-24 92-21 125 9 40-29 98-26 135 11 63-18 137 14 160 74 47 7 83 48 83 99 0 55-44 100-99 100H320c-72 0-131-59-131-132 0-69 52-125 119-131 3-4 7-8 12-20z"/>
  </g>
  <g fill="#93c5fd" opacity="0.14">
    <circle cx="460" cy="560" r="6"/>
    <circle cx="560" cy="610" r="6"/>
    <circle cx="650" cy="560" r="6"/>
    <circle cx="740" cy="620" r="6"/>
    <circle cx="840" cy="565" r="6"/>
    <circle cx="950" cy="615" r="6"/>
    <circle cx="1040" cy="560" r="6"/>
    <circle cx="1140" cy="620" r="6"/>
  </g>
</svg>
