<svg xmlns="http://www.w3.org/2000/svg" viewBox="0 0 1600 900">
  <rect width="1600" height="900" fill="#e9e9ff"/>
  <g fill="#ffffff" opacity="0.78">
    <path d="M300 245c55-62 157-65 220-10 45-27 104-23 142 12 47-33 115-29 158 14 73-21 157 16 184 86 53 8 93 54 93 111 0 62-49 112-110 112H300c-83 0-151-68-151-153 0-80 61-145 140-152 4-5 8-10 14-20z"/>
  </g>
  <path d="M820 520l-92 152h88l-66 164 170-222h-92l84-94z" fill="#fbbf24" opacity="0.92"/>
  <g stroke="#2563eb" stroke-width="6" stroke-linecap="round" opacity="0.26">
    <path d="M520 540l-30 92"/>
    <path d="M610 520l-30 92"/>
    <path d="M700 545l-30 92"/>
    <path d="M1060 540l-30 92"/>
    <path d="M1150 520l-30 92"/>
  </g>
</svg>
